<mxfile host="Electron" modified="2024-02-18T04:40:52.627Z" agent="Mozilla/5.0 (Windows NT 10.0; Win64; x64) AppleWebKit/537.36 (KHTML, like Gecko) draw.io/22.1.11 Chrome/114.0.5735.289 Electron/25.9.8 Safari/537.36" etag="iNcCFbnRK28Deynish-n" version="22.1.11" type="device">
  <diagram name="페이지-1" id="gfZU_FYnbHBELBhRZTQi">
    <mxGraphModel dx="1036" dy="629" grid="1" gridSize="10" guides="1" tooltips="1" connect="1" arrows="1" fold="1" page="1" pageScale="1" pageWidth="827" pageHeight="1169" math="0" shadow="0">
      <root>
        <mxCell id="0" />
        <mxCell id="1" parent="0" />
        <mxCell id="clbpy0nw_IkRFqMCx4xx-1" value="2" style="rounded=0;whiteSpace=wrap;html=1;verticalAlign=bottom;" vertex="1" parent="1">
          <mxGeometry x="40" y="280" width="40" height="80" as="geometry" />
        </mxCell>
        <mxCell id="clbpy0nw_IkRFqMCx4xx-2" value="4" style="rounded=0;whiteSpace=wrap;html=1;verticalAlign=bottom;" vertex="1" parent="1">
          <mxGeometry x="80" y="240" width="40" height="120" as="geometry" />
        </mxCell>
        <mxCell id="clbpy0nw_IkRFqMCx4xx-3" value="3" style="rounded=0;whiteSpace=wrap;html=1;verticalAlign=bottom;" vertex="1" parent="1">
          <mxGeometry x="120" y="280" width="40" height="80" as="geometry" />
        </mxCell>
      </root>
    </mxGraphModel>
  </diagram>
</mxfile>
